<?xml version="1.0" encoding="utf-8"?>
<!-- Generator: Adobe Illustrator 16.0.0, SVG Export Plug-In . SVG Version: 6.00 Build 0)  -->
<!DOCTYPE svg PUBLIC "-//W3C//DTD SVG 1.1//EN" "http://www.w3.org/Graphics/SVG/1.1/DTD/svg11.dtd">
<svg version="1.1" id="Layer_1" xmlns="http://www.w3.org/2000/svg" xmlns:xlink="http://www.w3.org/1999/xlink" x="0px" y="0px"
	 width="40px" height="40px" viewBox="0 0 40 40" enable-background="new 0 0 40 40" xml:space="preserve">
<rect fill="#1769FF" width="40" height="40"/>
<g>
	<path id="Behance" fill="#FFFFFF" d="M26.248,16.626h-3.859v-0.958h3.859V16.626L26.248,16.626z M19.82,20.557
		c0.248,0.386,0.373,0.853,0.373,1.404c0,0.568-0.141,1.078-0.426,1.529c-0.182,0.297-0.406,0.549-0.678,0.752
		c-0.305,0.234-0.666,0.395-1.082,0.48s-0.867,0.131-1.353,0.131h-4.315V15.27h4.628c1.167,0.02,1.993,0.357,2.481,1.021
		c0.293,0.406,0.438,0.896,0.438,1.463c0,0.586-0.147,1.055-0.442,1.41c-0.165,0.2-0.408,0.382-0.73,0.546
		C19.203,19.889,19.572,20.169,19.82,20.557z M14.549,19.048h2.028c0.416,0,0.753-0.079,1.012-0.237
		c0.26-0.158,0.389-0.439,0.389-0.843c0-0.445-0.171-0.741-0.514-0.884c-0.295-0.1-0.674-0.15-1.131-0.15h-1.784V19.048z
		 M18.173,21.824c0-0.498-0.203-0.842-0.609-1.027c-0.227-0.105-0.547-0.159-0.958-0.163h-2.057v2.553h2.024
		c0.416,0,0.738-0.055,0.971-0.168C17.964,22.811,18.173,22.414,18.173,21.824z M27.68,20.265c0.045,0.313,0.066,0.768,0.059,1.362
		H22.74c0.027,0.689,0.266,1.172,0.717,1.449c0.273,0.172,0.604,0.258,0.99,0.258c0.408,0,0.74-0.104,0.996-0.316
		c0.139-0.111,0.262-0.27,0.369-0.471h1.83c-0.047,0.408-0.268,0.822-0.664,1.242c-0.613,0.666-1.475,1.002-2.582,1.002
		c-0.912,0-1.719-0.283-2.418-0.846c-0.695-0.564-1.045-1.48-1.045-2.75c0-1.19,0.313-2.101,0.944-2.736
		c0.633-0.636,1.449-0.952,2.455-0.952c0.598,0,1.135,0.106,1.615,0.321c0.479,0.215,0.873,0.552,1.184,1.017
		C27.414,19.253,27.594,19.726,27.68,20.265z M25.875,20.444c-0.033-0.478-0.191-0.838-0.479-1.085
		c-0.285-0.247-0.641-0.372-1.064-0.372c-0.461,0-0.816,0.133-1.07,0.394s-0.414,0.615-0.479,1.063H25.875L25.875,20.444z"/>
</g>
</svg>
