<?xml version="1.0" encoding="utf-8"?>
<!-- Generator: Adobe Illustrator 16.0.0, SVG Export Plug-In . SVG Version: 6.00 Build 0)  -->
<!DOCTYPE svg PUBLIC "-//W3C//DTD SVG 1.1//EN" "http://www.w3.org/Graphics/SVG/1.1/DTD/svg11.dtd">
<svg version="1.1" id="Layer_1" xmlns="http://www.w3.org/2000/svg" xmlns:xlink="http://www.w3.org/1999/xlink" x="0px" y="0px"
	 width="64px" height="64px" viewBox="0 0 64 64" enable-background="new 0 0 64 64" xml:space="preserve">
<g>
	<g>
		<path fill="#262626" d="M59.143,0H4.858C2.18,0,0.002,2.179,0.002,4.858v54.284C0.002,61.82,2.18,64,4.858,64h54.286
			C61.822,64,64,61.82,64,59.142V4.858C64,2.179,61.823,0,59.143,0z M4.858,3.063h54.286c0.99,0,1.792,0.806,1.792,1.795v5.745
			H3.062V4.858C3.062,3.869,3.869,3.063,4.858,3.063z M59.143,60.938H4.858c-0.989,0-1.795-0.808-1.795-1.796V13.665h57.873v45.477
			C60.936,60.131,60.134,60.938,59.143,60.938z"/>
		<rect x="44.823" y="4.573" fill="#262626" width="3.637" height="3.637"/>
		<rect x="53.246" y="4.573" fill="#262626" width="3.637" height="3.637"/>
		<polygon fill="#262626" points="8.249,37.722 22.937,45.29 22.937,43.105 10.557,36.897 10.557,36.834 22.937,30.628 
			22.937,28.443 8.249,36.012 		"/>
		<polygon fill="#262626" points="24.702,51.15 26.824,51.15 37.988,23.598 35.834,23.598 		"/>
		<polygon fill="#262626" points="40.294,30.628 52.769,36.834 52.769,36.897 40.294,43.105 40.294,45.29 54.991,37.751 
			54.991,35.979 40.294,28.443 		"/>
	</g>
</g>
</svg>
