<?xml version="1.0" encoding="utf-8"?>
<!-- Generator: Adobe Illustrator 16.0.0, SVG Export Plug-In . SVG Version: 6.00 Build 0)  -->
<!DOCTYPE svg PUBLIC "-//W3C//DTD SVG 1.1//EN" "http://www.w3.org/Graphics/SVG/1.1/DTD/svg11.dtd">
<svg version="1.1" id="Layer_1" xmlns="http://www.w3.org/2000/svg" xmlns:xlink="http://www.w3.org/1999/xlink" x="0px" y="0px"
	 width="40px" height="40px" viewBox="0 0 40 40" enable-background="new 0 0 40 40" xml:space="preserve">
<rect fill="#EA4C89" width="40" height="40"/>
<path fill="#FFFFFF" d="M20.063,12.362c-4.246,0-7.7,3.455-7.7,7.7c0,4.246,3.454,7.7,7.7,7.7s7.7-3.454,7.7-7.7
	C27.763,15.817,24.309,12.362,20.063,12.362z M25.08,15.994c0.864,1.064,1.396,2.407,1.441,3.871
	c-1.602-0.332-3.052-0.292-4.332-0.042c-0.231-0.542-0.471-1.059-0.713-1.546C22.87,17.677,24.084,16.91,25.08,15.994z
	 M24.213,15.112c-0.989,0.903-2.136,1.572-3.31,2.065c-0.862-1.576-1.686-2.762-2.188-3.437c0.435-0.093,0.886-0.142,1.348-0.142
	C21.642,13.599,23.089,14.168,24.213,15.112z M17.467,14.145c0.379,0.491,1.282,1.722,2.252,3.472
	c-2.438,0.794-4.804,0.928-5.941,0.941C14.251,16.578,15.638,14.95,17.467,14.145z M13.605,19.797c0.012,0,0.024,0,0.036,0
	c0.786,0,2.226-0.053,3.92-0.362c0.967-0.176,1.884-0.414,2.744-0.708c0.224,0.446,0.446,0.917,0.662,1.411
	c-1.204,0.388-2.221,0.945-3.025,1.5c-1.349,0.93-2.294,1.959-2.811,2.598c-0.955-1.127-1.533-2.584-1.533-4.174
	C13.599,19.974,13.602,19.886,13.605,19.797z M16.023,25.104c0.444-0.56,1.349-1.578,2.657-2.472
	c0.889-0.606,1.809-1.058,2.756-1.354c0.549,1.424,1.018,2.998,1.298,4.668c-0.815,0.372-1.719,0.581-2.672,0.581
	C18.535,26.526,17.131,25.992,16.023,25.104z M23.872,25.279c-0.288-1.533-0.719-2.977-1.216-4.295
	c1.223-0.207,2.486-0.164,3.783,0.128C26.16,22.817,25.211,24.3,23.872,25.279z"/>
</svg>
