<?xml version="1.0" encoding="utf-8"?>
<!-- Generator: Adobe Illustrator 16.0.0, SVG Export Plug-In . SVG Version: 6.00 Build 0)  -->
<!DOCTYPE svg PUBLIC "-//W3C//DTD SVG 1.1//EN" "http://www.w3.org/Graphics/SVG/1.1/DTD/svg11.dtd">
<svg version="1.1" id="Layer_1" xmlns="http://www.w3.org/2000/svg" xmlns:xlink="http://www.w3.org/1999/xlink" x="0px" y="0px"
	 width="40px" height="40px" viewBox="0 0 40 40" enable-background="new 0 0 40 40" xml:space="preserve">
<rect fill="#0077B5" width="40" height="40"/>
<g>
	<path id="LinkedIn" fill="#FFFFFF" d="M27.693,21.731v5.865h-3.317v-5.473c0-1.375-0.479-2.312-1.68-2.312
		c-0.917,0-1.463,0.631-1.703,1.243c-0.087,0.22-0.108,0.523-0.108,0.83v5.712h-3.319c0,0,0.045-9.269,0-10.229h3.318v1.451
		c-0.007,0.01-0.015,0.022-0.022,0.033h0.022v-0.033c0.439-0.696,1.228-1.69,2.99-1.69C26.056,17.127,27.693,18.589,27.693,21.731z
		 M14.095,12.436c-1.135,0-1.877,0.764-1.877,1.767c0,0.982,0.721,1.769,1.833,1.769h0.023c1.156,0,1.877-0.786,1.877-1.769
		C15.927,13.2,15.229,12.436,14.095,12.436z M12.415,27.597h3.316V17.367h-3.316V27.597z"/>
</g>
</svg>
