<?xml version="1.0" encoding="utf-8"?>
<!-- Generator: Adobe Illustrator 16.0.0, SVG Export Plug-In . SVG Version: 6.00 Build 0)  -->
<!DOCTYPE svg PUBLIC "-//W3C//DTD SVG 1.1//EN" "http://www.w3.org/Graphics/SVG/1.1/DTD/svg11.dtd">
<svg version="1.1" id="Layer_1" xmlns="http://www.w3.org/2000/svg" xmlns:xlink="http://www.w3.org/1999/xlink" x="0px" y="0px"
	 width="30px" height="60px" viewBox="0 0 30 60" enable-background="new 0 0 30 60" xml:space="preserve">
<g>
	<path fill="#E11075" d="M28.208,58.021V4.588L15.643,23.457c-0.134,0.214-0.349,0.321-0.643,0.321
		c-0.295,0-0.509-0.107-0.643-0.321L1.793,4.588v53.433c0,0.51-0.268,0.762-0.803,0.762c-0.508,0-0.763-0.252-0.763-0.762V2.02
		c0-0.375,0.187-0.628,0.562-0.763c0.347-0.107,0.628,0,0.843,0.321L15,21.61L28.369,1.578c0.213-0.321,0.495-0.429,0.843-0.321
		c0.373,0.135,0.561,0.388,0.561,0.763v56.001c0,0.51-0.254,0.762-0.762,0.762C28.475,58.783,28.208,58.531,28.208,58.021z"/>
</g>
</svg>
