<?xml version="1.0" encoding="utf-8"?>
<!-- Generator: Adobe Illustrator 16.0.0, SVG Export Plug-In . SVG Version: 6.00 Build 0)  -->
<!DOCTYPE svg PUBLIC "-//W3C//DTD SVG 1.1//EN" "http://www.w3.org/Graphics/SVG/1.1/DTD/svg11.dtd">
<svg version="1.1" id="Layer_1" xmlns="http://www.w3.org/2000/svg" xmlns:xlink="http://www.w3.org/1999/xlink" x="0px" y="0px"
	 width="26px" height="50px" viewBox="0 0 26 50" enable-background="new 0 0 26 50" xml:space="preserve">
<g>
	<path fill="#E01075" d="M24.479,49.239V3.016L13.56,19.34c-0.117,0.185-0.303,0.276-0.56,0.276s-0.442-0.092-0.559-0.276
		L1.521,3.016v46.223c0,0.441-0.233,0.661-0.697,0.661c-0.441,0-0.664-0.22-0.664-0.661V0.795c0-0.324,0.163-0.543,0.489-0.661
		c0.301-0.092,0.546,0,0.732,0.278L13,17.743l11.62-17.33c0.186-0.278,0.429-0.371,0.732-0.278c0.327,0.117,0.488,0.336,0.488,0.661
		v48.444c0,0.441-0.219,0.661-0.662,0.661C24.712,49.9,24.479,49.681,24.479,49.239z"/>
</g>
</svg>
