<?xml version="1.0" encoding="utf-8"?>
<!-- Generator: Adobe Illustrator 16.0.0, SVG Export Plug-In . SVG Version: 6.00 Build 0)  -->
<!DOCTYPE svg PUBLIC "-//W3C//DTD SVG 1.1//EN" "http://www.w3.org/Graphics/SVG/1.1/DTD/svg11.dtd">
<svg version="1.1" id="Layer_1" xmlns="http://www.w3.org/2000/svg" xmlns:xlink="http://www.w3.org/1999/xlink" x="0px" y="0px"
	 width="64px" height="64px" viewBox="0 0 64 64" enable-background="new 0 0 64 64" xml:space="preserve">
<g>
	<path fill="#262626" d="M45.533,0H18.867c-2.948,0-5.334,2.385-5.334,5.333v53.334c0,2.947,2.386,5.332,5.334,5.332h26.666
		c2.948,0,5.334-2.385,5.334-5.332V5.333C50.867,2.385,48.481,0,45.533,0z M48.2,58.668c0,1.469-1.198,2.666-2.667,2.666H18.867
		c-1.475,0-2.667-1.197-2.667-2.666v-5.334h32V58.668z M48.2,50.668h-32V5.333c0-1.474,1.192-2.667,2.667-2.667h26.666
		c1.469,0,2.667,1.193,2.667,2.667V50.668z"/>
	<path fill="#262626" d="M32.195,56c0.739,0,1.338,0.594,1.338,1.334s-0.599,1.334-1.338,1.334c-0.734,0-1.334-0.594-1.334-1.334
		S31.461,56,32.195,56z"/>
</g>
</svg>
