<?xml version="1.0" encoding="utf-8"?>
<!-- Generator: Adobe Illustrator 16.0.0, SVG Export Plug-In . SVG Version: 6.00 Build 0)  -->
<!DOCTYPE svg PUBLIC "-//W3C//DTD SVG 1.1//EN" "http://www.w3.org/Graphics/SVG/1.1/DTD/svg11.dtd">
<svg version="1.1" id="Layer_1" xmlns="http://www.w3.org/2000/svg" xmlns:xlink="http://www.w3.org/1999/xlink" x="0px" y="0px"
	 width="40px" height="40px" viewBox="0 0 40 40" enable-background="new 0 0 40 40" xml:space="preserve">
<g>
	<rect fill="#FAB719" width="40" height="40"/>
	<polygon fill="#010101" points="17.92,15.4 17.92,28.96 13.24,28.96 13.24,15.4 9.88,15.4 9.88,11.6 21.279,11.6 21.279,15.4 	"/>
	<path fill="#010101" d="M28.359,29.04c-0.56,0.12-1.159,0.16-1.92,0.16c-1.56,0-2.68-0.4-3.359-1.16s-1.04-1.92-1.04-3.521V19.32
		H20.6l3.041-6.44h3.039v2.96H30v3.48h-3.279v4.92c0,0.88,0.399,1.319,1.239,1.319l0,0c0.319,0,0.64-0.08,1-0.159
		c0.08,1.279,0.479,2.319,1.16,3.12C29.52,28.72,28.88,28.92,28.359,29.04z"/>
</g>
</svg>
