<?xml version="1.0" encoding="utf-8"?>
<!-- Generator: Adobe Illustrator 16.0.0, SVG Export Plug-In . SVG Version: 6.00 Build 0)  -->
<!DOCTYPE svg PUBLIC "-//W3C//DTD SVG 1.1//EN" "http://www.w3.org/Graphics/SVG/1.1/DTD/svg11.dtd">
<svg version="1.1" id="Layer_1" xmlns="http://www.w3.org/2000/svg" xmlns:xlink="http://www.w3.org/1999/xlink" x="0px" y="0px"
	 width="64px" height="64px" viewBox="0 0 64 64" enable-background="new 0 0 64 64" xml:space="preserve">
<g>
	<path fill="#262626" d="M62.693,6.169H1.307C0.584,6.169,0,6.754,0,7.476v50.049c0,0.722,0.584,1.307,1.307,1.307h61.387
		c0.722,0,1.307-0.585,1.307-1.307V7.476C64,6.754,63.415,6.169,62.693,6.169z M61.388,8.781v7.866H2.612V8.781H61.388z
		 M2.612,56.218V19.26h58.775v36.958H2.612z"/>
	<path fill="#262626" d="M20.387,25.832H9.941c-0.721,0-1.306,0.584-1.306,1.306v10.579c0,0.722,0.585,1.307,1.306,1.307h10.445
		c0.721,0,1.306-0.585,1.306-1.307V27.138C21.692,26.416,21.107,25.832,20.387,25.832z M19.08,36.41h-7.832v-7.967h7.832V36.41z"/>
	<path fill="#262626" d="M26.682,39.023h10.444c0.722,0,1.307-0.585,1.307-1.307V27.138c0-0.722-0.585-1.306-1.307-1.306H26.682
		c-0.721,0-1.306,0.584-1.306,1.306v10.579C25.376,38.438,25.961,39.023,26.682,39.023z M27.988,28.443h7.832v7.967h-7.832V28.443z"
		/>
	<path fill="#262626" d="M43.423,39.023h10.444c0.722,0,1.306-0.585,1.306-1.307V27.138c0-0.722-0.584-1.306-1.306-1.306H43.423
		c-0.722,0-1.307,0.584-1.307,1.306v10.579C42.116,38.438,42.701,39.023,43.423,39.023z M44.729,28.443h7.833v7.967h-7.833V28.443z"
		/>
	<path fill="#262626" d="M20.387,42.338H9.941c-0.721,0-1.306,0.585-1.306,1.306c0,0.722,0.585,1.307,1.306,1.307h10.445
		c0.721,0,1.306-0.585,1.306-1.307C21.692,42.923,21.107,42.338,20.387,42.338z"/>
	<path fill="#262626" d="M20.387,47.17H9.941c-0.721,0-1.306,0.585-1.306,1.307c0,0.721,0.585,1.306,1.306,1.306h10.445
		c0.721,0,1.306-0.585,1.306-1.306C21.692,47.755,21.107,47.17,20.387,47.17z"/>
	<path fill="#262626" d="M37.223,42.338H26.778c-0.722,0-1.307,0.585-1.307,1.306c0,0.722,0.585,1.307,1.307,1.307h10.444
		c0.721,0,1.306-0.585,1.306-1.307C38.528,42.923,37.943,42.338,37.223,42.338z"/>
	<path fill="#262626" d="M37.223,47.17H26.778c-0.722,0-1.307,0.585-1.307,1.307c0,0.721,0.585,1.306,1.307,1.306h10.444
		c0.721,0,1.306-0.585,1.306-1.306C38.528,47.755,37.943,47.17,37.223,47.17z"/>
	<path fill="#262626" d="M54.059,42.338H43.613c-0.721,0-1.306,0.585-1.306,1.306c0,0.722,0.585,1.307,1.306,1.307h10.445
		c0.721,0,1.306-0.585,1.306-1.307C55.364,42.923,54.779,42.338,54.059,42.338z"/>
	<path fill="#262626" d="M54.059,47.17H43.613c-0.721,0-1.306,0.585-1.306,1.307c0,0.721,0.585,1.306,1.306,1.306h10.445
		c0.721,0,1.306-0.585,1.306-1.306C55.364,47.755,54.779,47.17,54.059,47.17z"/>
	<path fill="#262626" d="M9.941,13.992h0.646c0.722,0,1.306-0.585,1.306-1.307c0-0.721-0.584-1.306-1.306-1.306H9.941
		c-0.721,0-1.306,0.585-1.306,1.306C8.636,13.407,9.221,13.992,9.941,13.992z"/>
	<path fill="#262626" d="M15.357,13.992h0.645c0.722,0,1.307-0.585,1.307-1.307c0-0.721-0.585-1.306-1.307-1.306h-0.645
		c-0.721,0-1.306,0.585-1.306,1.306C14.052,13.407,14.637,13.992,15.357,13.992z"/>
	<path fill="#262626" d="M20.773,13.992h0.645c0.721,0,1.307-0.585,1.307-1.307c0-0.721-0.586-1.306-1.307-1.306h-0.645
		c-0.721,0-1.307,0.585-1.307,1.306C19.467,13.407,20.053,13.992,20.773,13.992z"/>
</g>
</svg>
